<?xml version="1.0" encoding="iso-8859-1"?>
<!-- Generator: Adobe Illustrator 19.0.0, SVG Export Plug-In . SVG Version: 6.00 Build 0)  -->
<svg version="1.1" id="Capa_1" xmlns="http://www.w3.org/2000/svg" xmlns:xlink="http://www.w3.org/1999/xlink" x="0px" y="0px"
	 viewBox="0 0 512 512" style="enable-background:new 0 0 512 512;" xml:space="preserve">
<g>
	<g>
		<path d="M456.543,196.46l-38.035-63.17C429.307,122.436,436,107.49,436,91c0-33.091-26.909-60-60-60
			c-22.114,0-41.25,12.153-51.656,30H187.656C177.25,43.153,158.114,31,136,31c-33.091,0-60,26.909-60,60
			c0,16.49,6.693,31.436,17.492,42.29l-38.035,63.17C24.52,198.827,0,224.466,0,256s24.52,57.173,55.457,59.54l38.035,63.17
			C82.693,389.564,76,404.51,76,421c0,33.091,26.909,60,60,60c22.114,0,41.25-12.153,51.656-30h136.688
			c10.406,17.847,29.542,30,51.656,30c33.091,0,60-26.909,60-60c0-16.49-6.693-31.436-17.492-42.29l38.035-63.17
			C487.48,313.173,512,287.534,512,256S487.48,198.827,456.543,196.46z M196,91h120c0,13.583,4.706,25.981,12.339,36.046
			L256,229.917l-72.339-102.87C191.294,116.981,196,104.583,196,91z M119.412,148.376C124.715,149.914,130.207,151,136,151
			c8.615,0,16.767-1.899,24.177-5.18L227.11,241H117.87c-4.393-16.899-15.899-30.8-31.207-38.469L119.412,148.376z M160.177,366.18
			c-7.41-3.281-15.562-5.18-24.177-5.18c-5.793,0-11.285,1.086-16.588,2.624l-32.749-54.155
			c15.308-7.668,26.814-21.57,31.207-38.469h109.24L160.177,366.18z M316,421H196c0-13.583-4.706-25.981-12.339-36.046L256,282.083
			l72.339,102.87C320.706,395.019,316,407.417,316,421z M392.588,363.624C387.285,362.086,381.793,361,376,361
			c-8.615,0-16.767,1.899-24.177,5.18L284.89,271h109.24c4.393,16.899,15.899,30.8,31.207,38.469L392.588,363.624z M394.13,241
			H284.89l66.933-95.18c7.41,3.281,15.562,5.18,24.177,5.18c5.793,0,11.285-1.086,16.588-2.624l32.749,54.155
			C410.029,210.199,398.523,224.101,394.13,241z"/>
	</g>
</g>
<g>
</g>
<g>
</g>
<g>
</g>
<g>
</g>
<g>
</g>
<g>
</g>
<g>
</g>
<g>
</g>
<g>
</g>
<g>
</g>
<g>
</g>
<g>
</g>
<g>
</g>
<g>
</g>
<g>
</g>
</svg>
