<?xml version="1.0" encoding="iso-8859-1"?>
<!-- Generator: Adobe Illustrator 19.0.0, SVG Export Plug-In . SVG Version: 6.00 Build 0)  -->
<svg version="1.1" id="Capa_1" xmlns="http://www.w3.org/2000/svg" xmlns:xlink="http://www.w3.org/1999/xlink" x="0px" y="0px"
	 viewBox="0 0 512 512" style="enable-background:new 0 0 512 512;" xml:space="preserve">
<polygon style="fill:#A0C1C6;" points="256,285 216,398.5 256,512 332,512 362,285 "/>
<polygon style="fill:#CFE0E3;" points="256,285 256,512 180,512 150,285 "/>
<polygon style="fill:#A0C1C6;" points="60,190 60,135 90,105 120,135 120,190 "/>
<rect x="60" style="fill:#CFE0E3;" width="60" height="135"/>
<polygon style="fill:#41828D;" points="90,165 60,255 150,255 150,165 "/>
<rect x="30" y="165" style="fill:#70A2AA;" width="60" height="90"/>
<polygon style="fill:#0D4A55;" points="180,225 180,512 90,512 60,368.5 90,225 "/>
<rect y="225" style="fill:#41828D;" width="90" height="287"/>
<rect x="30" y="255" style="fill:#116371;" width="30" height="30"/>
<rect x="120" y="255" style="fill:#000E0F;" width="30" height="30"/>
<rect x="30" y="315" style="fill:#116371;" width="30" height="30"/>
<rect x="120" y="315" style="fill:#000E0F;" width="30" height="30"/>
<polygon style="fill:#A0C1C6;" points="392,190 392,135 422,105 452,135 452,190 "/>
<rect x="392" style="fill:#CFE0E3;" width="60" height="135"/>
<polygon style="fill:#41828D;" points="422,165 392,255 482,255 482,165 "/>
<rect x="362" y="165" style="fill:#70A2AA;" width="60" height="90"/>
<polygon style="fill:#0D4A55;" points="512,225 512,512 422,512 392,368.5 422,225 "/>
<rect x="332" y="225" style="fill:#41828D;" width="90" height="287"/>
<rect x="362" y="255" style="fill:#116371;" width="30" height="30"/>
<rect x="452" y="255" style="fill:#000E0F;" width="30" height="30"/>
<rect x="362" y="315" style="fill:#116371;" width="30" height="30"/>
<rect x="452" y="315" style="fill:#000E0F;" width="30" height="30"/>
<g>
</g>
<g>
</g>
<g>
</g>
<g>
</g>
<g>
</g>
<g>
</g>
<g>
</g>
<g>
</g>
<g>
</g>
<g>
</g>
<g>
</g>
<g>
</g>
<g>
</g>
<g>
</g>
<g>
</g>
</svg>
